<?xml version="1.0" encoding="UTF-8"?> <svg xmlns="http://www.w3.org/2000/svg" width="42.665" height="32.814" viewBox="0 0 42.665 32.814"><g id="Group_175945" data-name="Group 175945" transform="translate(-114 -45.443)"><path id="Path_84003" data-name="Path 84003" d="M34.87,1.077H30.952V6.469a9.685,9.685,0,0,1-9.735,9.581H12.412A12.3,12.3,0,0,0,0,28.228v5.39H11.753v-5.43a9.685,9.685,0,0,1,9.736-9.581h8.8A12.258,12.258,0,0,0,42.665,6.469V1.077Z" transform="translate(114 44.639)" fill="#1d70ea"></path><path id="Path_84004" data-name="Path 84004" d="M6.889.82a5.9,5.9,0,1,1-5.9,5.9,5.9,5.9,0,0,1,5.9-5.9" transform="translate(114.055 44.623)" fill="#1d70ea"></path></g></svg> 